<!-- Generated by IcoMoon.io -->
<svg version="1.1" xmlns="http://www.w3.org/2000/svg" width="32" height="32" viewBox="0 0 32 32">
<title>backoffice</title>
<path d="M26.623 6.692v0c-0.491 0.378-1.114 0.607-1.791 0.607-1.627 0-2.947-1.319-2.947-2.947 0-0.677 0.228-1.3 0.612-1.798l-0.005 0.007-2.561-2.561-15.146 15.146 2.547 2.534c0.505-0.423 1.162-0.68 1.878-0.68 1.62 0 2.933 1.313 2.933 2.933 0 0.717-0.257 1.373-0.684 1.883l0.004-0.005 2.63 2.63 15.146-15.146zM16.048 19.621l-6.472-6.485 7.394-7.394 6.444 6.485z"></path>
<path d="M24.64 32h-20.241c-0.909 0-1.639-1.57-1.639-2.465v-6.885c0-0.909 0.468-1.639 1.377-1.639s1.377 0.744 1.377 1.639v6.554h17.9v-6.513c0-0.909 0.468-1.639 1.377-1.639s1.377 0.744 1.377 1.639v6.885c0 0.854-0.62 2.423-1.528 2.423z"></path>
</svg>
