<!-- Generated by IcoMoon.io -->
<svg version="1.1" xmlns="http://www.w3.org/2000/svg" width="32" height="32" viewBox="0 0 32 32">
<title>billing</title>
<path d="M8.636 5.535c-0.684-0.601-1.538-1.025-2.482-1.189l-0.030-0.004v4.145c2.528 0.565 3.596 1.57 3.596 3.219s-1.46 2.952-3.533 3.062v1.57h-1.068v-1.57c-1.522-0.142-2.876-0.767-3.932-1.717l0.006 0.005 0.738-0.989c0.847 0.829 1.955 1.396 3.189 1.567l0.030 0.003v-4.161c-2.449-0.581-3.58-1.476-3.58-3.219v0c0.074-1.753 1.514-3.147 3.279-3.147 0.073 0 0.145 0.002 0.217 0.007l-0.010-0.001v-0.911h1.068v0.989c1.207 0.142 2.282 0.623 3.15 1.343l-0.010-0.008zM5.166 8.204v-3.925c-1.413 0-2.261 0.864-2.261 1.884s0.44 1.554 2.261 2.041zM6.124 9.774v3.925c1.429-0.079 2.308-0.864 2.308-1.947v0c0.016-0.989-0.471-1.57-2.308-2.057z"></path>
<path d="M14.132 10.952h17.868v3.14h-17.869v-3.14z"></path>
<path d="M0 18.803h32v3.14h-32v-3.14z"></path>
<path d="M0 26.654h32v3.14h-32v-3.14z"></path>
<path d="M14.132 3.101h17.868v3.14h-17.869v-3.14z"></path>
</svg>
