<!-- Generated by IcoMoon.io -->
<svg version="1.1" xmlns="http://www.w3.org/2000/svg" width="32" height="32" viewBox="0 0 32 32">
<title>business</title>
<path d="M9.6 25.6c-1.767 0-3.2 1.433-3.2 3.2s1.433 3.2 3.2 3.2c1.767 0 3.2-1.433 3.2-3.2v0c0-1.767-1.433-3.2-3.2-3.2v0zM0 0v3.2h3.2l5.76 12.146-2.16 3.92c-0.252 0.436-0.4 0.96-0.4 1.518 0 0.010 0 0.020 0 0.030v-0.002c0.015 1.759 1.44 3.179 3.199 3.187h19.2v-3.2h-18.52c-0.221 0-0.4-0.179-0.4-0.4v0-0.187l1.44-2.667h11.92c0.030 0.001 0.064 0.002 0.099 0.002 1.157 0 2.171-0.614 2.733-1.534l0.008-0.014 5.72-10.386c0.126-0.221 0.201-0.486 0.201-0.769 0-0.016-0-0.031-0.001-0.047l0 0.002c0-0.884-0.716-1.6-1.6-1.6h-23.666l-1.507-3.2zM25.599 25.6c-1.767 0-3.2 1.433-3.2 3.2s1.433 3.2 3.2 3.2c1.767 0 3.2-1.433 3.2-3.2v0c0-1.767-1.433-3.2-3.2-3.2v0z"></path>
</svg>
