<!-- Generated by IcoMoon.io -->
<svg version="1.1" xmlns="http://www.w3.org/2000/svg" width="32" height="32" viewBox="0 0 32 32">
<title>business-plus</title>
<path d="M16.628 28.658c0 1.21-0.981 2.191-2.191 2.191s-2.191-0.981-2.191-2.191c0-1.21 0.981-2.191 2.191-2.191s2.191 0.981 2.191 2.191z"></path>
<path d="M27.224 26.423c1.21 0.012 2.181 1.003 2.169 2.213s-1.003 2.181-2.213 2.169c-1.21-0.012-2.181-1.003-2.169-2.213s1.003-2.181 2.213-2.169z"></path>
<path d="M29.009 24.006h-17.182l-5.551-20.615h-6.277v-2.24h8l5.551 20.615h15.458v2.24z"></path>
<path d="M28.591 17.668h-12.308l-3.557-13.428h19.274zM18.068 15.428h8.775l2.265-8.948h-13.452z"></path>
</svg>
