<!-- Generated by IcoMoon.io -->
<svg version="1.1" xmlns="http://www.w3.org/2000/svg" width="32" height="32" viewBox="0 0 32 32">
<title>call-paused</title>
<path d="M24.885 0h-3.558v12.442h3.558zM30.212 22.212c-0.005 0-0.011 0-0.017 0-2.263 0-4.438-0.372-6.469-1.058l0.142 0.042c-0.173-0.058-0.372-0.091-0.579-0.091-0.506 0-0.966 0.2-1.304 0.525l0.001-0.001-3.84 3.915c-5.066-2.616-9.093-6.642-11.638-11.559l-0.070-0.149 3.915-3.934c0.331-0.31 0.537-0.75 0.537-1.238 0-0.19-0.031-0.373-0.089-0.544l0.004 0.012c-0.654-1.898-1.033-4.086-1.035-6.361v-0.001c-0.057-0.953-0.816-1.712-1.764-1.769l-0.005-0h-6.231c-0.953 0.057-1.712 0.816-1.769 1.764l-0 0.005c0 0.006 0 0.012 0 0.019 0 16.686 13.526 30.212 30.212 30.212 0.007 0 0.013 0 0.020 0h-0.001c0.959-0.058 1.722-0.827 1.769-1.784l0-0.004v-6.212c-0.048-0.961-0.81-1.73-1.764-1.788l-0.005-0zM28.442 0v12.442h3.558v-12.442z"></path>
</svg>
