<!-- Generated by IcoMoon.io -->
<svg version="1.1" xmlns="http://www.w3.org/2000/svg" width="32" height="32" viewBox="0 0 32 32">
<title>call-down</title>
<path d="M11.308 16.845l-4.433 4.456c-2.391-3.186-4.246-6.932-5.34-10.99l-0.053-0.229c-0.937-3.564 0.96-9.094 5.027-10.053 1.965-0.457 5.804 4.798 6.169 8.386l-3.839 3.29s-0.183 1.554 2.468 5.141z"></path>
<path d="M30.752 26.624c-1.508 4.296-3.656 6.055-8.751 5.141-3.915-0.994-7.317-2.809-10.154-5.259l0.032 0.027 4.341-4.318c2.285 2.034 3.542 2.056 3.542 2.056l3.976-3.404c4.204 0.845 7.015 5.758 7.015 5.758z"></path>
<path d="M1.341 29.625l25.818-25.818 2.294 2.294-25.818 25.818-2.294-2.294z"></path>
</svg>
