<!-- Generated by IcoMoon.io -->
<svg version="1.1" xmlns="http://www.w3.org/2000/svg" width="32" height="32" viewBox="0 0 32 32">
<title>call-out</title>
<path d="M1.371 9.976c4.726 17.112 18.381 21.465 20.495 21.788 4.975 0.92 7.238-0.871 8.73-5.124-1.576-2.717-4.045-4.767-6.998-5.769l-0.090-0.027-3.905 3.432s-2.214 0-6.666-5.223-4.228-7.462-4.228-7.462l3.781-3.159c-0.348-3.607-4.154-8.855-6.119-8.407-4.079 0.97-5.945 6.492-4.999 9.949z"></path>
<path d="M16.79 14.849l11.977-11.977 1.759 1.759-11.977 11.977-1.759-1.759z"></path>
<path d="M30.87 14.055h-2.487v-9.079h-9.054v-2.487h11.541v11.566z"></path>
</svg>
