<!-- Generated by IcoMoon.io -->
<svg version="1.1" xmlns="http://www.w3.org/2000/svg" width="32" height="32" viewBox="0 0 32 32">
<title>call-off</title>
<path d="M22.158 13.606c-1.931-0.698-4.16-1.101-6.483-1.101-2.002 0-3.934 0.3-5.754 0.857l0.139-0.037-0.102 4.028c-0.009 0.503-0.307 0.933-0.734 1.135l-0.008 0.003c-1.476 0.719-2.741 1.612-3.841 2.677l0.004-0.004c-0.233 0.241-0.559 0.391-0.921 0.391s-0.688-0.15-0.92-0.391l-0-0-3.146-3.325c-0.241-0.233-0.391-0.559-0.391-0.921s0.15-0.688 0.391-0.92l0-0c3.954-3.778 9.325-6.104 15.238-6.104 6.282 0 11.951 2.624 15.971 6.837l0.008 0.009c0.241 0.233 0.391 0.559 0.391 0.921s-0.15 0.688-0.391 0.92l-0 0-3.287 3.133c-0.233 0.241-0.559 0.391-0.921 0.391s-0.688-0.15-0.92-0.391l-0-0c-1.064-1.128-2.295-2.082-3.658-2.826l-0.077-0.038c-0.407-0.219-0.679-0.643-0.679-1.13 0-0.021 0-0.042 0.002-0.063l-0 0.003z"></path>
</svg>
