<!-- Generated by IcoMoon.io -->
<svg version="1.1" xmlns="http://www.w3.org/2000/svg" width="32" height="32" viewBox="0 0 32 32">
<title>call-in</title>
<path d="M0.358 10.166c4.712 16.937 18.326 21.277 20.434 21.599 4.96 0.918 7.216-0.868 8.704-5.108-1.575-2.698-4.036-4.734-6.977-5.727l-0.090-0.026-3.893 3.397s-2.207 0-6.646-5.208-4.216-7.439-4.216-7.439l3.769-3.149c-0.347-3.546-4.141-8.803-6.1-8.357-4.067 0.967-5.927 6.447-4.984 10.018z"></path>
<path d="M18.188 11.941l11.941-11.941 1.753 1.753-11.941 11.941-1.753-1.753z"></path>
<path d="M29.371 14.059h-11.531v-11.531h2.48v9.051h9.051v2.48z"></path>
</svg>
