<!-- Generated by IcoMoon.io -->
<svg version="1.1" xmlns="http://www.w3.org/2000/svg" width="32" height="32" viewBox="0 0 32 32">
<title>clock</title>
<path d="M18.68 4.454l-3.196 11.32c-0.014 0.049-0.022 0.106-0.022 0.165 0 0.343 0.278 0.62 0.62 0.62 0.284 0 0.523-0.191 0.597-0.451l0.001-0.004 3.196-11.34c0.014-0.049 0.022-0.106 0.022-0.165 0-0.343-0.278-0.62-0.62-0.62-0.284 0-0.523 0.191-0.597 0.451l-0.001 0.004z"></path>
<path d="M16.062 16.495h6.412c0.342 0 0.619-0.277 0.619-0.619s-0.277-0.619-0.619-0.619h-6.412c-0.342 0-0.619 0.277-0.619 0.619s0.277 0.619 0.619 0.619v0z"></path>
<path d="M0 16c0 8.837 7.163 16 16 16s16-7.163 16-16c0-8.837-7.163-16-16-16v0c-8.832 0.012-15.988 7.168-16 15.999v0.001zM2.557 16c0-7.425 6.019-13.443 13.443-13.443s13.443 6.019 13.443 13.443c0 7.425-6.019 13.443-13.443 13.443v0c-7.42-0.012-13.432-6.023-13.443-13.442v-0.001z"></path>
<path d="M6.041 15.938c0 0.455-0.443 0.825-0.99 0.825s-0.99-0.369-0.99-0.825c0-0.456 0.443-0.825 0.99-0.825s0.99 0.369 0.99 0.825z"></path>
<path d="M27.897 15.938c0 0.455-0.443 0.825-0.99 0.825s-0.99-0.369-0.99-0.825c0-0.456 0.443-0.825 0.99-0.825s0.99 0.369 0.99 0.825z"></path>
<path d="M16.784 26.887c0 0.547-0.36 0.99-0.804 0.99s-0.804-0.443-0.804-0.99c0-0.547 0.36-0.99 0.804-0.99s0.804 0.443 0.804 0.99z"></path>
<path d="M16.784 5.031c0 0.547-0.36 0.99-0.804 0.99s-0.804-0.443-0.804-0.99c0-0.547 0.36-0.99 0.804-0.99s0.804 0.443 0.804 0.99z"></path>
</svg>
