<!-- Generated by IcoMoon.io -->
<svg version="1.1" xmlns="http://www.w3.org/2000/svg" width="32" height="32" viewBox="0 0 32 32">
<title>closed</title>
<path d="M17.987 0c-5.558 0-10.063 4.505-10.063 10.063v0 1.987h-3.899v13.962c0 3.307 2.681 5.987 5.987 5.987v0h11.975c3.307 0 5.987-2.681 5.987-5.987v0-15.95c0-0 0-0 0-0 0-5.531-4.462-10.020-9.983-10.063l-0.004-0zM12 10.063c0-3.307 2.681-5.987 5.987-5.987s5.987 2.681 5.987 5.987v0 1.987h-11.975zM22.063 28.025h-12.050c-1.092-0.014-1.973-0.895-1.987-1.986v-10.064h15.95v10.063c-0.055 1.053-0.923 1.887-1.985 1.887-0.001 0-0.002 0-0.003 0h0z"></path>
<path d="M17.987 21.937c0 1.098-0.89 1.987-1.987 1.987s-1.987-0.89-1.987-1.987c0-1.098 0.89-1.987 1.987-1.987v0c1.092 0.014 1.973 0.895 1.987 1.986v0.001z"></path>
</svg>
