<!-- Generated by IcoMoon.io -->
<svg version="1.1" xmlns="http://www.w3.org/2000/svg" width="32" height="32" viewBox="0 0 32 32">
<title>coin</title>
<path d="M16 0c-8.837 0-16 7.163-16 16s7.163 16 16 16c8.837 0 16-7.163 16-16v0c-0.011-8.832-7.168-15.989-15.999-16h-0.001zM18.259 25.751v3.049h-4.273v-3.087c-2.812-0.341-5.003-2.603-5.232-5.419l-0.001-0.021h3.144c0.151 1.675 1.318 2.993 4.235 2.993s3.765-1.562 3.765-2.541c0-1.336-0.696-2.579-4.273-3.426-3.896-0.96-6.607-2.598-6.607-5.873 0.185-2.703 2.286-4.862 4.946-5.137l0.024-0.002v-3.087h4.273v3.125c2.575 0.52 4.497 2.738 4.555 5.415l0 0.006h-3.144c0-1.769-1.016-2.993-3.539-2.993s-3.765 1.092-3.765 2.616 0.96 2.24 4.198 3.068 6.682 2.221 6.682 6.268c-0.019 2.918-2.202 4.518-4.988 5.045z"></path>
</svg>
