<!-- Generated by IcoMoon.io -->
<svg version="1.1" xmlns="http://www.w3.org/2000/svg" width="32" height="32" viewBox="0 0 32 32">
<title>continue</title>
<path d="M9.92 17.647l-4.952 6.127-4.968-6.127h9.92z"></path>
<path d="M5.814 19.183c0.074 0.386 0.155 0.707 0.253 1.021l-0.018-0.066-2.225 0.454c-0.015-0.136-0.024-0.294-0.024-0.454s0.009-0.318 0.025-0.474l-0.002 0.019c0-0.674-0.407-1.348-0.423-2.006-0.008-0.165-0.012-0.358-0.012-0.552 0-5.883 4.052-10.819 9.517-12.171l0.086-0.018c1.22-0.26 2.622-0.408 4.058-0.408 0.066 0 0.132 0 0.199 0.001l-0.010-0h0.627v3.134c-0.636-0.131-1.367-0.206-2.116-0.206s-1.479 0.075-2.186 0.218l0.070-0.012c-4.513 0.993-7.84 4.957-7.84 9.699 0 0.1 0.001 0.199 0.004 0.298l-0-0.015c-0 0.028-0 0.060-0 0.093 0 0.52 0.040 1.031 0.117 1.53l-0.007-0.056-1.207 0.188z"></path>
<path d="M24.823 18.634h2.492c-0.901 4.948-4.57 8.847-9.314 10.073l-0.088 0.019c-0.817 0.197-1.755 0.31-2.719 0.31-2.398 0-4.633-0.7-6.512-1.906l0.048 0.029c-0.593-0.348-1.105-0.716-1.581-1.125l0.014 0.012 1.755-1.677c0.34 0.327 0.708 0.631 1.099 0.905l0.030 0.020c1.38 0.823 3.043 1.309 4.82 1.309 0.894 0 1.76-0.123 2.581-0.354l-0.067 0.016c3.907-0.603 6.939-3.699 7.439-7.588l0.005-0.044z"></path>
<path d="M22.597 2.963h3.134v10.97h-3.134v-10.97z"></path>
<path d="M28.866 2.963h3.134v10.97h-3.134v-10.97z"></path>
</svg>
