<!-- Generated by IcoMoon.io -->
<svg version="1.1" xmlns="http://www.w3.org/2000/svg" width="32" height="32" viewBox="0 0 32 32">
<title>crono</title>
<path d="M20.594 0h-9.122v3.054h9.122zM14.506 19.791h3.054v-9.142h-3.054zM26.741 9.788l2.153-2.173c-0.655-0.78-1.353-1.479-2.108-2.112l-0.026-0.021-2.153 2.153c-2.331-1.894-5.335-3.040-8.607-3.040-7.568 0-13.703 6.135-13.703 13.703s6.135 13.703 13.703 13.703c7.568 0 13.703-6.135 13.703-13.703 0-3.228-1.116-6.195-2.983-8.537l0.021 0.028zM16.033 28.933c-5.881 0-10.649-4.768-10.649-10.649s4.768-10.649 10.649-10.649c5.881 0 10.649 4.768 10.649 10.649v0c0 5.881-4.768 10.649-10.649 10.649v0z"></path>
</svg>
