<!-- Generated by IcoMoon.io -->
<svg version="1.1" xmlns="http://www.w3.org/2000/svg" width="32" height="32" viewBox="0 0 32 32">
<title>cup</title>
<path d="M13.005 24.041c-7.207-0.114-13.005-5.983-13.005-13.207 0-0.058 0-0.116 0.001-0.174l-0 0.009v-6.645h25.994v6.645c0.001 0.049 0.001 0.107 0.001 0.165 0 7.218-5.79 13.084-12.98 13.206l-0.011 0zM2.043 6.067v4.602c-0.001 0.050-0.001 0.108-0.001 0.167 0 6.071 4.846 11.011 10.88 11.162l0.014 0c6.049-0.152 10.895-5.091 10.895-11.162 0-0.059-0-0.117-0.001-0.176l0 0.009v-4.602z"></path>
<path d="M13.005 20.037c-4.996-0.114-9.002-4.19-9.002-9.203 0-0.058 0.001-0.116 0.002-0.174l-0 0.009v-1.634h2.042v1.634c-0.001 0.054-0.002 0.117-0.002 0.18 0 3.885 3.093 7.047 6.95 7.159l0.010 0z"></path>
<path d="M28.977 14.060h-1.035v-2.042h1.035c0.541 0 0.98-0.439 0.98-0.98v0-2.002c-0.030-0.518-0.457-0.926-0.979-0.926-0.001 0-0.001 0-0.002 0h-1.035v-2.083h1.035c0 0 0 0 0 0 1.665 0 3.015 1.346 3.023 3.009v2.030c-0.015 1.658-1.363 2.996-3.023 2.996-0 0-0 0-0 0v0z"></path>
<path d="M5.012 25.933h15.972v2.042h-15.972v-2.042z"></path>
</svg>
