<!-- Generated by IcoMoon.io -->
<svg version="1.1" xmlns="http://www.w3.org/2000/svg" width="32" height="32" viewBox="0 0 32 32">
<title>database</title>
<path d="M26.462 11.016l-2.959 2.959-2.906-0.784-0.767-2.888 0.374-0.374 2.585-2.567c-0.413-0.117-0.887-0.185-1.377-0.185-1.438 0-2.741 0.581-3.685 1.522l0-0c-0.213 0.218-0.407 0.457-0.577 0.713l-0.011 0.018c-0.577 0.828-0.922 1.856-0.922 2.964 0 0.294 0.024 0.583 0.071 0.863l-0.004-0.030c0.037 0.221 0.081 0.407 0.134 0.589l-0.009-0.036-2.674 2.656-5.33 5.33c-0.418-0.12-0.898-0.189-1.394-0.189-2.885 0-5.223 2.338-5.223 5.223 0 0.486 0.066 0.956 0.191 1.403l-0.009-0.037 2.959-2.959 2.888 0.784 0.784 2.888-2.959 2.941c0.409 0.115 0.879 0.181 1.365 0.181 2.885 0 5.223-2.338 5.223-5.223 0-0.581-0.095-1.14-0.27-1.662l0.011 0.037 4.046-4.046 3.779-3.761c0.485 0.164 1.044 0.259 1.625 0.259 2.884 0 5.223-2.338 5.223-5.223 0-0.485-0.066-0.955-0.19-1.401l0.009 0.037z"></path>
<path d="M21.008 4.831c0.094-0.007 0.203-0.011 0.313-0.011 1.686 0 3.157 0.921 3.936 2.288l0.012 0.022-1.996 3.191c3.565-0.57 6.31-1.515 7.344-2.638 0.299-0.247 0.498-0.605 0.534-1.010l0-0.006c0-0.214 0-0.695 0-1.194s0-0.98 0-1.194c-0.031-0.418-0.232-0.783-0.532-1.032l-0.002-0.002c-1.64-1.729-7.308-3.066-14.225-3.244h-0.784c-6.916 0.178-12.603 1.515-14.225 3.262-0.303 0.251-0.503 0.616-0.534 1.029l-0 0.005c0 0.214 0 0.695 0 1.194s0 0.98 0 1.194c0.036 0.411 0.236 0.769 0.532 1.014l0.002 0.002c1.48 1.604 6.346 2.834 12.478 3.155 0.018-2.103 1.248-5.062 7.148-6.025z"></path>
<path d="M30.616 14.385c0.297-0.248 0.496-0.606 0.534-1.010l0-0.006c0-0.214 0-0.695 0-1.194s0-0.98 0-1.176c0.007-0.024 0.011-0.052 0.011-0.080s-0.004-0.056-0.011-0.082l0 0.002c-0.070 0.35-0.248 0.65-0.498 0.872l-0.002 0.001c-0.399 0.395-0.864 0.724-1.378 0.967l-0.030 0.013c-0.104 1.138-0.435 2.18-0.947 3.106l0.020-0.040c0.893-0.309 1.66-0.777 2.303-1.376l-0.004 0.004z"></path>
<path d="M1.613 11.711c-0.285-0.285-0.766-0.57-0.766-0.873-0.007 0.024-0.011 0.052-0.011 0.080s0.004 0.056 0.011 0.082l-0-0.002c0 0.196 0 0.695 0 1.176s0 0.98 0 1.194 0.303 0.677 0.642 1.016c1.141 1.194 4.439 2.193 8.485 2.745l2.513-2.406c-5.205-0.463-9.555-1.586-10.874-3.012z"></path>
<path d="M1.613 18.414c-0.285-0.285-0.766-0.588-0.766-0.873-0.007 0.024-0.011 0.052-0.011 0.080s0.004 0.056 0.011 0.082l-0-0.002c0 0.196 0 0.695 0 1.176s0 0.98 0 1.194 0.303 0.677 0.642 1.016l0.196 0.178c0.77-0.602 1.682-1.063 2.675-1.325l0.052-0.012c-1.084-0.307-2.022-0.83-2.806-1.522l0.008 0.007z"></path>
<path d="M31.15 17.54c-0.071 0.35-0.249 0.649-0.498 0.872l-0.002 0.001c-1.444 1.551-6.043 2.745-11.872 3.119l-2.228 2.781c6.845-0.178 12.478-1.48 14.064-3.209 0.297-0.248 0.496-0.606 0.534-1.010l0-0.006c0-0.214 0-0.695 0-1.194s0-0.98 0-1.176c0.009-0.027 0.013-0.057 0.013-0.089s-0.005-0.062-0.014-0.091l0.001 0.002z"></path>
</svg>
