<!-- Generated by IcoMoon.io -->
<svg version="1.1" xmlns="http://www.w3.org/2000/svg" width="32" height="32" viewBox="0 0 32 32">
<title>dollar</title>
<path d="M23.166 7.477c-1.539-1.35-3.457-2.303-5.575-2.681l-0.070-0.010v9.234c5.682 1.246 8.075 3.439 8.075 7.252 0 4.037-3.29 6.766-7.963 7.065v3.664h-2.393v-3.738c-3.42-0.326-6.463-1.73-8.837-3.863l0.014 0.012 1.682-2.243c1.902 1.891 4.399 3.186 7.184 3.581l0.068 0.008v-9.383c-5.533-1.308-7.963-3.327-7.963-7.252v0c0-3.85 3.252-6.692 7.85-6.916v-2.206h2.393v2.243c2.742 0.3 5.188 1.38 7.163 3.009l-0.023-0.018zM15.353 13.495v-8.822c-3.178 0.15-5.084 1.944-5.084 4.224s0.972 3.564 5.084 4.598zM17.521 16.86v9.009c3.215-0.187 5.196-1.944 5.196-4.374v0c0-2.243-1.084-3.551-5.196-4.636z"></path>
</svg>
