<!-- Generated by IcoMoon.io -->
<svg version="1.1" xmlns="http://www.w3.org/2000/svg" width="32" height="32" viewBox="0 0 32 32">
<title>globe</title>
<path d="M30.679 9.764c-1.634-3.829-4.631-6.813-8.367-8.392l-0.103-0.039c-1.833-0.808-3.969-1.278-6.216-1.278s-4.383 0.47-6.317 1.318l0.101-0.040c-3.85 1.617-6.858 4.6-8.471 8.328l-0.039 0.102c-0.796 1.837-1.259 3.976-1.259 6.223s0.463 4.386 1.299 6.327l-0.040-0.104c1.645 3.845 4.655 6.843 8.407 8.431l0.104 0.039c1.833 0.808 3.969 1.278 6.216 1.278s4.383-0.47 6.317-1.318l-0.101 0.040c3.844-1.628 6.842-4.626 8.431-8.367l0.039-0.103c0.808-1.835 1.278-3.974 1.278-6.223s-0.47-4.388-1.317-6.324l0.040 0.102zM10.671 2.975c-1.425 1.88-2.483 4.12-3.020 6.556l-0.021 0.113h-4.188c1.571-3.002 4.082-5.331 7.136-6.634l0.094-0.036zM1.947 16.007c0-0.006 0-0.012 0-0.019 0-1.578 0.264-3.094 0.749-4.507l-0.029 0.097h4.575c-0.212 1.321-0.334 2.844-0.334 4.395s0.121 3.074 0.355 4.56l-0.021-0.165h-4.575c-0.442-1.3-0.705-2.798-0.72-4.354l-0-0.007zM3.455 22.303h4.175c0.552 2.55 1.611 4.792 3.071 6.711l-0.030-0.041c-3.163-1.32-5.68-3.661-7.193-6.604l-0.037-0.079zM15.033 29.919c-1.34-0.475-2.435-1.363-3.16-2.509l-0.015-0.025c-0.99-1.453-1.751-3.152-2.181-4.979l-0.020-0.103h5.336zM15.033 20.382h-5.829c-0.21-1.307-0.335-2.822-0.347-4.363l-0-0.012c0-0.006 0-0.012 0-0.019 0-1.554 0.141-3.074 0.41-4.55l-0.023 0.154h5.776v8.79zM15.033 9.711h-5.336c0.457-1.933 1.212-3.636 2.224-5.153l-0.036 0.057c0.721-1.169 1.806-2.054 3.093-2.508l0.042-0.013v7.55zM28.585 9.711h-4.202c-0.557-2.549-1.616-4.79-3.072-6.712l0.031 0.042c3.139 1.321 5.648 3.627 7.192 6.525l0.038 0.077zM16.994 2.108c1.329 0.468 2.412 1.353 3.12 2.496l0.015 0.025c0.987 1.439 1.758 3.117 2.217 4.92l0.023 0.109h-5.336zM16.994 11.578h5.776c0.246 1.315 0.387 2.829 0.387 4.375 0 0.019-0 0.038-0 0.056v-0.003c-0.010 1.552-0.136 3.067-0.369 4.546l0.022-0.171h-5.816zM16.994 29.906v-7.616h5.336c-0.477 1.93-1.244 3.627-2.264 5.139l0.036-0.057c-0.711 1.168-1.787 2.054-3.067 2.508l-0.041 0.013zM21.342 29.025c1.43-1.878 2.488-4.12 3.021-6.558l0.020-0.112h4.188c-1.551 3.017-4.068 5.354-7.137 6.635l-0.093 0.034zM29.346 20.369h-4.575c0.212-1.31 0.333-2.82 0.333-4.359 0-0.001 0-0.002 0-0.003v0c0-0.012 0-0.025 0-0.039 0-1.545-0.121-3.061-0.355-4.54l0.021 0.164h4.575c0.457 1.31 0.72 2.819 0.72 4.39 0 0.009 0 0.018-0 0.026v-0.001c-0.015 1.56-0.277 3.053-0.75 4.449l0.030-0.101z"></path>
</svg>
