<!-- Generated by IcoMoon.io -->
<svg version="1.1" xmlns="http://www.w3.org/2000/svg" width="32" height="32" viewBox="0 0 32 32">
<title>goals</title>
<path d="M31.538 3.33c0.002-0.038 0.003-0.083 0.003-0.129 0-1.746-1.398-3.165-3.135-3.199l-0.003-0h-24.799c-0.001 0-0.002 0-0.003 0-1.767 0-3.2 1.433-3.2 3.2 0 0.045 0.001 0.090 0.003 0.134l-0-0.006c0.108 2.357 0.735 4.544 1.768 6.482l-0.040-0.082c0.858 1.608 1.967 2.967 3.291 4.079l0.021 0.017 0.688 0.576c0.639 4.412 4.203 7.822 8.635 8.221l0.037 0.003v2.256c-1.043 0.16-1.973 0.544-2.773 1.102l0.021-0.014c-1.212 0.808-2.009 2.155-2.048 3.69l-0 0.006v2.336h11.903v-2.336c-0.039-1.541-0.836-2.888-2.031-3.685l-0.017-0.010c-0.779-0.544-1.709-0.928-2.715-1.083l-0.037-0.005v-2.256c4.489-0.38 8.076-3.797 8.713-8.172l0.006-0.052 0.688-0.544c1.335-1.116 2.438-2.459 3.26-3.976l0.036-0.072c1.003-1.88 1.631-4.096 1.727-6.449l0.001-0.030zM22.994 16.001c-1.166 2.594-3.728 4.368-6.703 4.368-0 0-0 0-0 0h-0.624c-4.012-0.027-7.255-3.281-7.264-7.295v-10.736h15.263v10.687c-0.013 1.082-0.259 2.103-0.691 3.020l0.019-0.045zM2.74 3.202c-0-0.010-0.001-0.021-0.001-0.033 0-0.459 0.372-0.832 0.832-0.832 0.011 0 0.023 0 0.034 0.001l-0.002-0h2.448v8.864c-1.986-2.085-3.233-4.889-3.312-7.984l-0-0.015zM19.603 29.664h-7.264c0-1.328 1.424-2.416 3.2-2.56h0.864c1.808 0.096 3.2 1.232 3.2 2.56zM29.202 3.202c-0.077 3.111-1.324 5.916-3.316 8.004l0.005-0.005v-8.864h2.512c0.446 0.017 0.801 0.383 0.801 0.831 0 0.011-0 0.023-0.001 0.034l0-0.002z"></path>
<path d="M21.955 32h-11.951v-2.336c0.030-1.553 0.83-2.912 2.031-3.717l0.017-0.010c0.78-0.538 1.71-0.917 2.716-1.067l0.036-0.004v-2.224c-4.48-0.396-8.054-3.816-8.681-8.188l-0.006-0.051-0.688-0.544c-1.335-1.122-2.438-2.47-3.26-3.991l-0.036-0.072c-1-1.875-1.628-4.085-1.727-6.432l-0.001-0.031c-0.002-0.038-0.003-0.083-0.003-0.128 0-1.767 1.433-3.2 3.2-3.2 0.001 0 0.002 0 0.003 0h24.799c0.001 0 0.002 0 0.003 0 1.767 0 3.2 1.433 3.2 3.2 0 0.045-0.001 0.090-0.003 0.134l0-0.006c-0.11 2.357-0.737 4.543-1.768 6.482l0.040-0.083c-0.858 1.589-1.96 2.932-3.274 4.030l-0.021 0.017-0.72 0.624c-0.62 4.437-4.198 7.873-8.651 8.269l-0.037 0.003v2.208c1.037 0.163 1.962 0.546 2.757 1.102l-0.021-0.014c1.218 0.816 2.017 2.175 2.048 3.723l0 0.005zM10.003 32h11.839v-2.336c-0.034-1.534-0.826-2.875-2.015-3.669l-0.017-0.010c-0.774-0.542-1.699-0.925-2.699-1.083l-0.037-0.005v-2.304c1.066-0.093 2.048-0.349 2.957-0.744l-0.061 0.024c2.308-0.993 4.111-2.795 5.080-5.041l0.024-0.062c0.32-0.685 0.57-1.48 0.712-2.312l0.008-0.056 0.688-0.544c1.328-1.113 2.425-2.45 3.244-3.96l0.036-0.072c0.989-1.857 1.61-4.045 1.711-6.368l0.001-0.032c0.011-0.096 0.017-0.207 0.017-0.32 0-1.709-1.381-3.095-3.088-3.104h-24.799c-0.031-0.001-0.068-0.002-0.104-0.002-1.714 0-3.104 1.39-3.104 3.104 0 0.079 0.003 0.158 0.009 0.236l-0.001-0.010c0.103 2.355 0.724 4.543 1.752 6.482l-0.040-0.083c0.869 1.598 1.988 2.946 3.321 4.045l0.023 0.018 0.688 0.608c0.487 3.405 2.702 6.199 5.713 7.496l0.062 0.024c0.845 0.354 1.824 0.594 2.848 0.67l0.031 0.002v2.304c-1.037 0.163-1.962 0.546-2.757 1.102l0.021-0.014c-1.218 0.798-2.022 2.141-2.064 3.674l-0 0.006zM19.603 29.744h-7.296c0-1.328 1.408-2.448 3.2-2.592h0.896c1.872 0.144 3.2 1.248 3.2 2.592zM12.323 29.744h7.28c0-1.296-1.392-2.368-3.2-2.512h-0.816c-1.824-0.032-3.2 1.12-3.216 2.416zM16.243 20.481h-0.576c-3.003-0.022-5.576-1.84-6.701-4.432l-0.018-0.048c-0.345-0.818-0.546-1.768-0.546-2.766 0-0.057 0.001-0.114 0.002-0.171l-0 0.008v-10.767h15.327v10.767c-0.018 4.042-3.299 7.312-7.344 7.312-0 0-0 0-0 0v0zM8.403 2.354v10.719c0.027 4.009 3.283 7.248 7.295 7.248 0 0 0 0 0 0h0.624c0 0 0 0 0 0 4.012 0 7.268-3.239 7.295-7.245v-10.722zM25.89 11.297v-8.992h2.512c0.449 0.034 0.801 0.407 0.801 0.862 0 0.012-0 0.024-0.001 0.036l0-0.002c-0.049 3.096-1.257 5.9-3.207 8.008l0.007-0.008zM25.89 2.354v8.848c1.947-2.097 3.156-4.903 3.2-7.991l0-0.009c0-0.010 0.001-0.021 0.001-0.032 0-0.445-0.357-0.807-0.8-0.816h-0.001zM6.067 11.297v0c-2.022-2.103-3.29-4.945-3.36-8.082l-0-0.014c-0.001-0.014-0.001-0.031-0.001-0.047 0-0.231 0.092-0.44 0.241-0.593l-0 0c0.154-0.159 0.37-0.257 0.608-0.257 0.017 0 0.033 0 0.050 0.001l-0.002-0h2.464zM3.604 2.354c-0 0-0.001 0-0.001 0-0.442 0-0.8 0.358-0.8 0.8 0 0.017 0.001 0.034 0.002 0.050l-0-0.002c0.044 3.097 1.253 5.903 3.207 8.007l-0.007-0.008v-8.848z"></path>
</svg>
