<!-- Generated by IcoMoon.io -->
<svg version="1.1" xmlns="http://www.w3.org/2000/svg" width="32" height="32" viewBox="0 0 32 32">
<title>logo</title>
<path d="M7.188 17.605c0 0.754 0.549 0.813 1.013 0.813 0.035 0.002 0.076 0.004 0.117 0.004s0.082-0.001 0.123-0.004l-0.006 0h0.106l0.132-0.732h-0.043c-0.034 0.010-0.074 0.016-0.114 0.017h-0.001c-0.204 0-0.324-0.077-0.324-0.315 0-0.001 0-0.002 0-0.002 0-0.084 0.011-0.165 0.031-0.243l-0.001 0.007 0.507-2.627h-1.563l-0.145 0.686h0.605l-0.388 1.997c-0.028 0.119-0.045 0.257-0.047 0.399l-0 0.002zM7.895 13.871h0.971l0.166-0.852h-0.971l-0.166 0.852z"></path>
<path d="M8.942 16.805c0 0.996 0.677 1.703 1.869 1.703 0.005 0 0.012 0 0.018 0 0.432 0 0.84-0.101 1.203-0.28l-0.016 0.007c0.162-0.076 0.302-0.166 0.429-0.271l-0.003 0.003-0.255-0.72c-0.107 0.088-0.227 0.17-0.354 0.241l-0.012 0.006c-0.263 0.147-0.576 0.236-0.909 0.243l-0.002 0c-0.030 0.003-0.065 0.005-0.1 0.005-0.515 0-0.933-0.418-0.933-0.933 0-0.020 0.001-0.040 0.002-0.059l-0 0.003c0.002-0.788 0.626-1.43 1.407-1.46l0.003-0c0.345 0 0.681 0.136 0.643 0.396l-0.047 0.221h0.822l0.098-0.49c0.14-0.749-0.852-0.984-1.435-0.984-0.007-0-0.014-0-0.022-0-1.311 0-2.377 1.048-2.405 2.352l-0 0.003z"></path>
<path d="M13.004 18.419h0.958l0.264-1.448c0.179-0.975 0.852-1.605 1.435-1.605 0.119 0 0.2 0 0.226 0l0.192-0.962c-0.035 0.004-0.074 0.007-0.115 0.007s-0.080-0.002-0.12-0.007l0.005 0c-0.622 0.063-1.138 0.462-1.367 1.011l-0.004 0.011c0.060-0.178 0.105-0.386 0.127-0.601l0.001-0.012c0-0.192-0.14-0.307-0.426-0.307h-1.026l-0.14 0.686h0.426c0.005-0.001 0.010-0.001 0.016-0.001 0.071 0 0.128 0.057 0.128 0.128 0 0.016-0.003 0.031-0.008 0.044l0-0.001-0.575 3.057z"></path>
<path d="M16.713 16.92c0.014-0.8 0.654-1.446 1.45-1.469l0.002-0c0.018-0.001 0.039-0.002 0.061-0.002 0.499 0 0.903 0.404 0.903 0.903 0 0.016-0 0.031-0.001 0.047l0-0.002c-0.014 0.796-0.653 1.438-1.446 1.456l-0.002 0c-0.019 0.002-0.042 0.002-0.065 0.002-0.496 0-0.898-0.402-0.898-0.898 0-0.014 0-0.029 0.001-0.043l-0 0.002zM15.781 16.967c-0 0.011-0 0.025-0 0.038 0 0.941 0.763 1.703 1.703 1.703 0.041 0 0.081-0.001 0.121-0.004l-0.005 0c0.010 0 0.023 0 0.035 0 1.319 0 2.391-1.054 2.422-2.365l0-0.003c0-0.010 0-0.022 0-0.034 0-0.941-0.763-1.703-1.703-1.703-0.041 0-0.081 0.001-0.121 0.004l0.005-0c-0.014-0-0.031-0-0.047-0-1.314 0-2.383 1.050-2.414 2.357l-0 0.003z"></path>
<path d="M20.954 18.419h1.103l1.788-3.211h0.468l0.145-0.686h-1.891l-0.145 0.686h0.426l-1.022 1.95c-0.044 0.081-0.087 0.178-0.123 0.279l-0.005 0.015c-0.018 0.040-0.034 0.087-0.046 0.135l-0.001 0.005h-0.021c0.002-0.021 0.004-0.046 0.004-0.070s-0.001-0.049-0.004-0.073l0 0.003c-0-0.104-0.010-0.206-0.027-0.304l0.002 0.011-0.315-1.95h0.426l0.145-0.686h-1.788l-0.145 0.686h0.468l0.558 3.211z"></path>
<path d="M27.951 18.427h3.407l0.256-1.277h-0.83l-0.123 0.554h-1.277c-0.017 0.002-0.037 0.003-0.057 0.003s-0.040-0.001-0.060-0.003l0.002 0c0.115-0.086 0.216-0.175 0.31-0.272l0.001-0.001 2.304-2.282 0.119-0.626h-3.249l-0.251 1.277h0.818l0.106-0.588h0.907c0.037 0.002 0.080 0.004 0.123 0.004s0.087-0.001 0.129-0.004l-0.006 0c0.017-0.002 0.036-0.003 0.055-0.003s0.039 0.001 0.058 0.003l-0.002-0c-0.112 0.088-0.212 0.177-0.306 0.272l-0 0-2.321 2.333-0.111 0.609z"></path>
<path d="M0 18.419h0.958l0.319-1.673c0.145-0.72 0.588-1.461 1.248-1.461 0.341 0 0.426 0.179 0.426 0.426-0.005 0.131-0.020 0.255-0.045 0.376l0.002-0.014-0.426 2.346h0.924l0.324-1.729c0.136-0.711 0.588-1.405 1.205-1.405 0.353 0 0.456 0.179 0.456 0.456s-0.26 1.49-0.26 1.874c0 0.732 0.566 0.805 0.971 0.805 0.042 0.003 0.091 0.004 0.141 0.004s0.098-0.002 0.147-0.005l-0.007 0c0.015 0.005 0.031 0.008 0.049 0.008s0.034-0.003 0.050-0.008l-0.001 0 0.162-0.715h-0.047c-0.018 0.002-0.039 0.004-0.060 0.004s-0.042-0.001-0.062-0.004l0.002 0c-0.204 0-0.319-0.072-0.319-0.315-0.051-0.311 0.26-1.473 0.26-1.929 0.002-0.025 0.004-0.053 0.004-0.082 0-0.531-0.431-0.962-0.962-0.962-0.037 0-0.074 0.002-0.11 0.006l0.004-0c-0.613 0.018-1.145 0.352-1.439 0.844l-0.004 0.008c0-0.001 0-0.003 0-0.004 0-0.47-0.381-0.852-0.852-0.852-0.030 0-0.060 0.002-0.089 0.005l0.004-0c-0.605 0.048-1.125 0.372-1.439 0.845l-0.004 0.007c0.048-0.125 0.080-0.271 0.089-0.422l0-0.004c0-0.196-0.119-0.324-0.426-0.324h-1.043l-0.149 0.698h0.426c0.106 0 0.149 0.051 0.132 0.158l-0.558 3.040z"></path>
<path d="M25.523 18.474c-0.149-0.050-0.277-0.109-0.397-0.18l0.010 0.005c0.539-0.085 1.021-0.225 1.477-0.416l-0.042 0.016c0.284-0.113 0.517-0.305 0.678-0.548l0.003-0.005c0.206-0.226 0.333-0.528 0.333-0.86 0-0.437-0.22-0.823-0.554-1.053l-0.004-0.003c-0.235-0.168-0.528-0.269-0.845-0.269-0.445 0-0.844 0.199-1.112 0.514l-0.002 0.002c-0.194 0.232-0.312 0.534-0.312 0.863 0 0.457 0.228 0.862 0.576 1.106l0.004 0.003c0.095 0.069 0.202 0.133 0.316 0.187l0.012 0.005c-0.143 0.189-0.324 0.341-0.532 0.447l-0.009 0.004c-0.604-0.361-1.002-1.012-1.002-1.756 0-1.126 0.913-2.040 2.040-2.040s2.040 0.913 2.040 2.040c0 0.663-0.316 1.252-0.807 1.625l-0.005 0.004c-0.112 0.086-0.24 0.163-0.375 0.225l-0.012 0.005c0.134 0.259 0.345 0.462 0.601 0.584l0.008 0.003c-0.773-0.087-1.479-0.265-2.143-0.526l0.057 0.020z"></path>
</svg>
