<!-- Generated by IcoMoon.io -->
<svg version="1.1" xmlns="http://www.w3.org/2000/svg" width="32" height="32" viewBox="0 0 32 32">
<title>logo-vertical</title>
<path d="M17.601 24.812c0.754 0 0.815-0.551 0.815-1.018 0.002-0.035 0.004-0.076 0.004-0.117s-0.001-0.082-0.004-0.122l0 0.006v-0.106l-0.732-0.136c-0.001 0.007-0.002 0.015-0.002 0.023s0.001 0.016 0.002 0.023l-0-0.001c0.002 0.018 0.004 0.039 0.004 0.060s-0.001 0.042-0.004 0.063l0-0.002c0 0.204-0.075 0.328-0.313 0.328-0.001 0-0.001 0-0.002 0-0.084 0-0.165-0.011-0.242-0.032l0.007 0.002-2.61-0.509v1.561l0.686 0.143v-0.603l1.999 0.377c0.119 0.027 0.257 0.044 0.398 0.045h0.001zM13.875 24.107v-0.969l-0.86-0.166v0.969l0.86 0.166z"></path>
<path d="M16.786 23.043c0.999 0 1.686-0.675 1.686-1.886 0-0.005 0-0.012 0-0.018 0-0.433-0.102-0.842-0.282-1.205l0.007 0.016c-0.076-0.161-0.166-0.3-0.27-0.426l0.003 0.003-0.72 0.256c0.088 0.11 0.17 0.234 0.239 0.364l0.006 0.013c0.148 0.263 0.238 0.577 0.245 0.911l0 0.002c0.004 0.031 0.006 0.067 0.006 0.103 0 0.514-0.417 0.932-0.932 0.932-0.019 0-0.038-0.001-0.057-0.002l0.003 0c-0.78-0.014-1.41-0.634-1.441-1.408l-0-0.003c0-0.347 0.136-0.679 0.4-0.641l0.223 0.045v-0.822l-0.49-0.098c-0.754-0.143-0.981 0.845-0.981 1.433-0 0.007-0 0.015-0 0.023 0 1.312 1.050 2.378 2.355 2.406l0.003 0z"></path>
<path d="M18.416 19v-0.958l-1.448-0.264c-0.973-0.181-1.603-0.852-1.603-1.433 0-0.121 0-0.204 0-0.226l-0.965-0.189c0.004 0.034 0.006 0.073 0.006 0.113s-0.002 0.079-0.006 0.118l0-0.005c0.063 0.617 0.455 1.128 0.996 1.361l0.011 0.004c-0.179-0.061-0.387-0.106-0.603-0.127l-0.012-0.001c-0.192 0-0.305 0.143-0.305 0.437v1.026l0.686 0.143v-0.441c-0.001-0.006-0.002-0.013-0.002-0.020 0-0.069 0.056-0.124 0.124-0.124 0.017 0 0.033 0.003 0.048 0.009l-0.001-0 3.059 0.573z"></path>
<path d="M16.915 15.289c-0.795-0.022-1.435-0.655-1.467-1.445l-0-0.003c-0.001-0.019-0.002-0.040-0.002-0.062 0-0.5 0.405-0.905 0.905-0.905 0.021 0 0.041 0.001 0.061 0.002l-0.003-0c0.792 0.023 1.426 0.663 1.441 1.454l0 0.001c0.002 0.019 0.002 0.042 0.002 0.065 0 0.498-0.404 0.901-0.901 0.901-0.013 0-0.025-0-0.038-0.001l0.002 0zM16.956 16.217c0.015 0 0.032 0.001 0.050 0.001 0.935 0 1.693-0.758 1.693-1.693 0-0.044-0.002-0.088-0.005-0.131l0 0.006c0-0.010 0-0.023 0-0.035 0-1.318-1.052-2.391-2.362-2.424l-0.003-0c-0.013-0-0.028-0.001-0.043-0.001-0.935 0-1.693 0.758-1.693 1.693 0 0.045 0.002 0.090 0.005 0.135l-0-0.006c-0 0.013-0 0.027-0 0.042 0 1.313 1.049 2.382 2.355 2.413l0.003 0z"></path>
<path d="M18.416 11.046v-1.101l-3.213-1.784v-0.468l-0.679-0.151v1.886l0.686 0.143v-0.437l1.954 1.048c0.081 0.044 0.178 0.087 0.279 0.123l0.016 0.005c0.040 0.018 0.086 0.033 0.134 0.044l0.005 0.001v0.023c-0.021-0.002-0.045-0.003-0.070-0.003s-0.049 0.001-0.073 0.004l0.003-0c-0.104 0-0.206 0.008-0.305 0.024l0.011-0.001-1.95 0.302v-0.449l-0.69-0.147v1.818l0.679 0.143v-0.464l3.213-0.558z"></path>
<path d="M18.419 4.054v-3.394l-1.29-0.256v0.818l0.581 0.106v1.037c0 0.091 0 0.181 0 0.249 0.002 0.017 0.003 0.037 0.003 0.057s-0.001 0.040-0.003 0.059l0-0.002c-0.084-0.115-0.173-0.216-0.271-0.308l-0.001-0.001-2.312-2.297-0.63-0.121v3.251l1.297 0.253v-0.818l-0.592-0.102v-0.909c0.002-0.037 0.003-0.081 0.003-0.124s-0.001-0.087-0.003-0.13l0 0.006c-0.002-0.017-0.003-0.037-0.003-0.057s0.001-0.040 0.003-0.059l-0 0.002c0.088 0.113 0.178 0.214 0.275 0.309l0.001 0.001 2.334 2.316 0.607 0.113z"></path>
<path d="M18.416 32v-0.958l-1.675-0.317c-0.709-0.143-1.463-0.588-1.463-1.245 0-0.339 0.177-0.437 0.422-0.437 0.136 0.005 0.266 0.021 0.392 0.048l-0.015-0.003 2.346 0.445v-0.958l-1.727-0.324c-0.72-0.136-1.418-0.592-1.418-1.211 0-0.355 0.177-0.453 0.453-0.453s1.509 0.256 1.886 0.256c0.735 0 0.807-0.566 0.807-0.973 0.003-0.042 0.004-0.090 0.004-0.14s-0.002-0.098-0.004-0.146l0 0.007c0.005-0.015 0.007-0.032 0.007-0.049s-0.003-0.034-0.008-0.050l0 0.001-0.735-0.136c-0.001 0.007-0.002 0.015-0.002 0.023s0.001 0.016 0.002 0.023l-0-0.001c0.002 0.018 0.003 0.039 0.003 0.060s-0.001 0.042-0.004 0.063l0-0.003c0 0.204-0.072 0.317-0.317 0.317-0.309 0.053-1.471-0.256-1.927-0.256-0.027-0.003-0.058-0.004-0.089-0.004-0.529 0-0.958 0.429-0.958 0.958 0 0.039 0.002 0.077 0.007 0.114l-0-0.005c0.022 0.618 0.365 1.151 0.867 1.44l0.008 0.004c-0.001 0-0.003 0-0.004 0-0.477 0-0.864 0.387-0.864 0.864 0 0.029 0.001 0.058 0.004 0.087l-0-0.004c0.048 0.608 0.377 1.13 0.856 1.44l0.007 0.004c-0.127-0.049-0.273-0.082-0.426-0.090l-0.004-0c-0.196 0-0.321 0.121-0.321 0.43v1.011l0.705 0.136v-0.415c0-0.106 0.053-0.151 0.158-0.136l3.040 0.581z"></path>
<path d="M18.468 6.479c-0.051 0.145-0.109 0.27-0.179 0.387l0.005-0.010c-0.087-0.538-0.227-1.020-0.419-1.475l0.016 0.042c-0.112-0.284-0.303-0.518-0.545-0.679l-0.005-0.003c-0.226-0.207-0.529-0.333-0.861-0.333-0.436 0-0.821 0.218-1.052 0.552l-0.003 0.004c-0.168 0.216-0.269 0.492-0.269 0.791 0 0.018 0 0.035 0.001 0.053l-0-0.003c-0.002 0.029-0.004 0.062-0.004 0.096 0 0.422 0.203 0.797 0.517 1.033l0.003 0.002c0.232 0.194 0.534 0.312 0.863 0.312 0.457 0 0.862-0.228 1.106-0.576l0.003-0.004c0.069-0.094 0.132-0.2 0.184-0.313l0.005-0.012c0.192 0.14 0.347 0.32 0.456 0.527l0.004 0.008c-0.362 0.603-1.012 1-1.755 1-1.127 0-2.040-0.913-2.040-2.040s0.913-2.040 2.040-2.040c0.82 0 1.528 0.484 1.852 1.182l0.005 0.013c0.259-0.135 0.463-0.346 0.585-0.603l0.003-0.008c-0.089 0.777-0.271 1.486-0.536 2.153l0.020-0.056z"></path>
</svg>
