<!-- Generated by IcoMoon.io -->
<svg version="1.1" xmlns="http://www.w3.org/2000/svg" width="32" height="32" viewBox="0 0 32 32">
<title>lunch</title>
<path d="M2.884 23.79c-1.594-0.003-2.884-1.296-2.884-2.89 0-0.797 0.322-1.518 0.844-2.041l4.487-4.487-2.801-2.751 9.646-9.583c0.886-0.848 2.090-1.37 3.416-1.37s2.53 0.522 3.418 1.372l-0.002-0.002c0.875 0.874 1.416 2.082 1.416 3.416s-0.541 2.542-1.416 3.416l-14.082 14.082c-0.522 0.517-1.24 0.837-2.034 0.837-0.002 0-0.005 0-0.008 0h0zM5.28 11.621l2.751 2.738-5.831 5.831c-0.211 0.182-0.344 0.45-0.344 0.749 0 0.546 0.443 0.989 0.989 0.989 0.299 0 0.567-0.133 0.748-0.343l0.001-0.001 14.070-14.057c0.531-0.53 0.86-1.263 0.86-2.072s-0.329-1.542-0.86-2.072l-0-0c-0.538-0.513-1.268-0.829-2.072-0.829s-1.534 0.316-2.074 0.83l0.001-0.001z"></path>
<path d="M10.426 31.332c-1.594-0.003-2.884-1.296-2.884-2.89 0-0.797 0.322-1.518 0.844-2.041l8.315-8.315v-4.107l7.136-7.136 1.344 1.344-6.579 6.579v4.12l-8.873 8.873c-0.178 0.179-0.288 0.425-0.288 0.697 0 0.545 0.44 0.986 0.985 0.989h0c0 0 0.001 0 0.001 0 0.272 0 0.519-0.112 0.696-0.291l8.873-8.873h4.082l6.579-6.579 1.344 1.344-7.098 7.174h-4.12l-8.315 8.264c-0.521 0.525-1.243 0.849-2.041 0.849h-0z"></path>
<path d="M20.406 17.137l6.843-6.87 1.347 1.342-6.843 6.87-1.347-1.342z"></path>
</svg>
