<!-- Generated by IcoMoon.io -->
<svg version="1.1" xmlns="http://www.w3.org/2000/svg" width="32" height="32" viewBox="0 0 32 32">
<title>mechanic</title>
<path d="M6.167 7.804l1.639-1.64 6.188 6.186-1.639 1.64-6.188-6.186z"></path>
<path d="M3.416 8.703l-3.416-5.689 3.014-3.014 5.689 3.416-0.155 3.617-1.546 1.546zM2.922 3.37l1.716 2.953h1.345l0.232-0.232v-1.329l-2.844-1.84z"></path>
<path d="M27.161 32c-0.003 0-0.006 0-0.009 0-1.333 0-2.538-0.544-3.407-1.422l-0-0-8.286-8.348 1.546-1.639 8.332 8.332c0.46 0.443 1.087 0.716 1.778 0.716s1.317-0.273 1.779-0.716l-0.001 0.001c0.454-0.456 0.734-1.084 0.734-1.778s-0.28-1.322-0.734-1.778l0 0-8.332-8.363 1.639-1.639 8.363 8.363c0.873 0.875 1.412 2.083 1.412 3.416 0 2.669-2.161 4.833-4.828 4.839h-0.001z"></path>
<path d="M5.132 32c-2.668-0.006-4.829-2.17-4.829-4.839 0-1.334 0.54-2.541 1.412-3.417l13.418-13.418c-0.089-0.456-0.139-0.979-0.139-1.515 0-0.011 0-0.022 0-0.032v0.002c0.024-4.677 3.822-8.46 8.502-8.46 1.248 0 2.433 0.269 3.501 0.752l-0.053-0.022 1.546 0.68-5.813 5.782 1.824 1.762 5.828-5.828 0.727 1.422c0.593 1.122 0.942 2.453 0.943 3.864v0c-0.011 4.696-3.82 8.499-8.518 8.499-0.536 0-1.059-0.049-1.568-0.144l0.053 0.008-13.418 13.48c-0.869 0.878-2.075 1.422-3.407 1.422-0.003 0-0.007 0-0.010 0h0zM23.482 2.628c-3.406 0.011-6.163 2.776-6.163 6.184 0 0.549 0.072 1.082 0.206 1.589l-0.010-0.043 0.17 0.649-14.33 14.377c-0.454 0.456-0.734 1.084-0.734 1.778s0.28 1.322 0.734 1.778l-0-0c0.46 0.443 1.087 0.716 1.778 0.716s1.317-0.273 1.779-0.716l-0.001 0.001 14.33-14.33 0.649 0.17c0.464 0.125 0.997 0.196 1.546 0.196 3.408 0 6.172-2.757 6.184-6.162v-0.001c0-0.005 0-0.010 0-0.015 0-0.432-0.045-0.854-0.131-1.261l0.007 0.040-4.993 5.040-5.101-5.101 4.854-4.854c-0.227-0.030-0.49-0.046-0.756-0.046-0.006 0-0.012 0-0.018 0h0.001z"></path>
</svg>
