<!-- Generated by IcoMoon.io -->
<svg version="1.1" xmlns="http://www.w3.org/2000/svg" width="32" height="32" viewBox="0 0 32 32">
<title>meeting</title>
<path d="M5.18 19.014c-2.256 0-4.086-1.829-4.086-4.086s1.829-4.086 4.086-4.086c2.256 0 4.086 1.829 4.086 4.086v0c-0.006 2.254-1.832 4.079-4.085 4.086h-0.001zM5.18 12.515c-1.327 0-2.402 1.075-2.402 2.402s1.075 2.402 2.402 2.402c1.323 0 2.396-1.069 2.402-2.39v-0.001c0-0.003 0-0.007 0-0.011 0-1.327-1.075-2.402-2.402-2.402-0 0-0 0-0 0v0z"></path>
<path d="M23.341 23.582h-1.684c0-3.121-2.53-5.651-5.651-5.651s-5.651 2.53-5.651 5.651v0h-1.695c0.159-3.929 3.382-7.054 7.335-7.054s7.176 3.125 7.335 7.039l0 0.014z"></path>
<path d="M26.82 19.014c-2.256 0-4.086-1.829-4.086-4.086s1.829-4.086 4.086-4.086c2.256 0 4.086 1.829 4.086 4.086v0c-0.006 2.254-1.832 4.079-4.085 4.086h-0.001zM26.82 12.515c-0.010-0-0.022-0-0.034-0-1.327 0-2.402 1.075-2.402 2.402s1.075 2.402 2.402 2.402c1.323 0 2.395-1.069 2.402-2.39v-0.001c0-0.003 0-0.007 0-0.011 0-1.315-1.056-2.383-2.367-2.402l-0.002-0z"></path>
<path d="M16 17.925c-2.858 0-5.174-2.317-5.174-5.174s2.317-5.174 5.174-5.174c2.858 0 5.174 2.317 5.174 5.174v0c0 2.858-2.317 5.174-5.174 5.174v0zM16 9.271c-1.928 0-3.491 1.563-3.491 3.491s1.563 3.491 3.491 3.491c1.928 0 3.491-1.563 3.491-3.491v0c0-1.928-1.563-3.491-3.491-3.491v0z"></path>
<path d="M23.341 24.424h-14.681v-1.919c0.004-0.059 0.006-0.128 0.006-0.198 0-1.928-1.563-3.491-3.491-3.491s-3.491 1.563-3.491 3.491c0 0.070 0.002 0.139 0.006 0.207l-0-0.009h-1.684c-0.004-0.072-0.006-0.156-0.006-0.241 0-2.858 2.317-5.174 5.174-5.174s5.174 2.317 5.174 5.174c0 0.085-0.002 0.169-0.006 0.253l0-0.012v0.236h11.314v-0.236c-0.004-0.072-0.006-0.156-0.006-0.241 0-2.858 2.317-5.174 5.174-5.174s5.174 2.317 5.174 5.174c0 0.085-0.002 0.169-0.006 0.253l0-0.012h-1.684c0.004-0.059 0.006-0.128 0.006-0.198 0-1.928-1.563-3.491-3.491-3.491s-3.491 1.563-3.491 3.491c0 0.070 0.002 0.139 0.006 0.207l-0-0.009z"></path>
</svg>
