<!-- Generated by IcoMoon.io -->
<svg version="1.1" xmlns="http://www.w3.org/2000/svg" width="32" height="32" viewBox="0 0 32 32">
<title>mute</title>
<path d="M27.668 15.328h-2.836c-0.009 1.255-0.288 2.443-0.783 3.512l0.022-0.053 2.052 2.052c0.951-1.576 1.523-3.474 1.545-5.505l0-0.006zM20.958 15.605s0-0.184 0-0.277v-9.985c0.007-0.102 0.012-0.22 0.012-0.34 0-2.764-2.24-5.004-5.004-5.004s-5.004 2.24-5.004 5.004c0 0.119 0.004 0.238 0.012 0.355l-0.001-0.016v0.3zM3.133 2l-2.121 2.121 10.008 10.054v1.153c-0 0.007-0 0.015-0 0.023 0 2.751 2.23 4.981 4.981 4.981 0 0 0 0 0 0v0c0.002 0 0.004 0 0.006 0 0.407 0 0.802-0.050 1.18-0.145l-0.033 0.007 2.767 2.767c-1.127 0.548-2.45 0.87-3.849 0.876h-0.002c-0.076 0.002-0.165 0.004-0.255 0.004-4.728 0-8.57-3.795-8.646-8.506l-0-0.007h-2.836c0.112 5.731 4.39 10.43 9.924 11.2l0.061 0.007v5.465h3.344v-5.465c1.584-0.251 3.005-0.776 4.276-1.529l-0.056 0.031 6.918 6.918 2.191-2.098z"></path>
</svg>
