<!-- Generated by IcoMoon.io -->
<svg version="1.1" xmlns="http://www.w3.org/2000/svg" width="32" height="32" viewBox="0 0 32 32">
<title>reload</title>
<path d="M22.143 2.239c-2.153-1.404-4.789-2.239-7.619-2.239-4.079 0-7.753 1.734-10.325 4.505l-0.008 0.009-2.821-2.275 0.273 8.897 8.578-1.934-2.958-2.275c1.854-1.883 4.432-3.050 7.282-3.050 2.063 0 3.984 0.612 5.59 1.664l-0.039-0.024z"></path>
<path d="M0.255 14.639c0.027 6.916 5.043 12.652 11.634 13.799l0.084 0.012-0.341 3.55 7.281-4.983-6.28-6.166-0.319 3.732c-4.683-0.995-8.146-5.095-8.146-10.004 0-0.003 0-0.005 0-0.008v0z"></path>
<path d="M21.848 26.881c4.415-2.436 7.355-7.061 7.355-12.373 0-1.606-0.269-3.149-0.764-4.586l0.030 0.099 3.276-1.411-7.827-4.096-2.48 8.532 3.436-1.479c0.27 0.874 0.426 1.879 0.426 2.92 0 3.873-2.156 7.244-5.333 8.976l-0.053 0.027z"></path>
</svg>
