<!-- Generated by IcoMoon.io -->
<svg version="1.1" xmlns="http://www.w3.org/2000/svg" width="32" height="32" viewBox="0 0 32 32">
<title>revenue</title>
<path d="M24.008 9.876c-0.959-0.384-1.247-0.607-1.247-1.039s0.256-0.719 0.975-0.719c0.407 0.002 0.792 0.096 1.135 0.263l-0.016-0.007h0.16c0.142-0.001 0.262-0.093 0.303-0.222l0.001-0.002 0.176-0.448c0.013-0.030 0.020-0.065 0.020-0.102 0-0.111-0.067-0.207-0.162-0.249l-0.002-0.001c-0.326-0.124-0.713-0.23-1.113-0.298l-0.038-0.005v-0.655c0-0.194-0.157-0.352-0.352-0.352v0h-0.304c-0.005-0-0.010-0-0.016-0-0.194 0-0.352 0.157-0.352 0.352 0 0 0 0 0 0v-0 0.687s0 0 0 0c-0.9 0.136-1.584 0.897-1.598 1.821l-0 0.002c0 1.103 0.911 1.598 1.902 1.982s1.103 0.623 1.103 1.087-0.448 0.847-1.103 0.847c-0.489-0.045-0.939-0.17-1.352-0.362l0.025 0.011h-0.144c-0.001 0-0.002-0-0.003-0-0.145 0-0.269 0.092-0.316 0.221l-0.001 0.002-0.176 0.448c-0.012 0.030-0.018 0.065-0.018 0.102 0 0.119 0.073 0.222 0.176 0.265l0.002 0.001c0.407 0.172 0.88 0.306 1.374 0.38l0.033 0.004s0 0 0 0v0.671c0 0.194 0.157 0.352 0.352 0.352h0.32c0.122-0.030 0.219-0.12 0.255-0.237l0.001-0.002v-0.719c0.915-0.172 1.598-0.965 1.598-1.918v0c0.128-1.039-0.4-1.662-1.598-2.158z"></path>
<path d="M23.544 2.076c-4.67 0-8.456 3.786-8.456 8.456s3.786 8.456 8.456 8.456c4.67 0 8.456-3.786 8.456-8.456v0c0-4.67-3.786-8.456-8.456-8.456v0zM23.544 17.021c-3.584 0-6.49-2.906-6.49-6.49s2.906-6.49 6.49-6.49c3.584 0 6.49 2.906 6.49 6.49v0c0 3.584-2.906 6.49-6.49 6.49v0z"></path>
<path d="M30.29 23.080c-1.945 1.074-4.206 1.877-6.603 2.284l-0.127 0.018c-2.19 0.352-6.394-0.48-6.394-1.471 0-0.368 3.629 0.911 5.818 0.336 1.598-0.448 1.439-2.014 0.527-2.222s-6.218-2.158-8.488-2.222c-1.844 0.098-3.557 0.303-5.233 0.613l0.246-0.038c-0.432 0-0.719 0-0.735 0.48-0.128 1.95-0.384 5.93-0.511 7.992 0 0 0 0.639 0.543 0.224 0.465-0.494 1.123-0.802 1.853-0.802 0.045 0 0.090 0.001 0.135 0.004l-0.006-0c1.071 0.24 10.486 1.966 11.781 1.598 3.102-1.197 5.784-2.715 8.198-4.565l-0.078 0.057c1.582-1.423 0.368-3.005-0.927-2.286z"></path>
<path d="M6.728 20.298l-4.923-0.24c-0.005-0-0.011-0-0.017-0-0.4 0-0.738 0.267-0.844 0.633l-0.002 0.006-0.911 8.136c-0.019 0.053-0.030 0.113-0.030 0.177 0 0.291 0.236 0.527 0.527 0.527 0.011 0 0.021-0 0.032-0.001l-0.001 0h5.467c0.006 0 0.012 0 0.019 0 0.375 0 0.683-0.287 0.716-0.653l0-0.003 0.607-7.833c0.003-0.024 0.005-0.052 0.005-0.081 0-0.361-0.285-0.656-0.643-0.671l-0.001-0zM3.835 28.451c-0.744-0.009-1.343-0.614-1.343-1.359 0-0.75 0.608-1.359 1.359-1.359s1.359 0.608 1.359 1.359v0c0 0 0 0 0 0 0 0.75-0.608 1.359-1.359 1.359-0.006 0-0.011-0-0.017-0h0.001z"></path>
</svg>
