<!-- Generated by IcoMoon.io -->
<svg version="1.1" xmlns="http://www.w3.org/2000/svg" width="32" height="32" viewBox="0 0 32 32">
<title>seeker</title>
<path d="M26.555 16.935c-1.076 0.962-2.504 1.55-4.070 1.55-0.735 0-1.439-0.129-2.092-0.367l0.043 0.014c0.001 0.043 0.001 0.094 0.001 0.145 0 2.225-0.881 4.245-2.314 5.729l0.002-0.002h13.873c0-0.021 0-0.045 0-0.070 0-3.357-2.291-6.178-5.395-6.986l-0.050-0.011z"></path>
<path d="M22.512 15.12c1.209-0.132 2.26-0.721 2.992-1.588l0.006-0.007c1.264-1.322 2.050-3.111 2.076-5.082l0-0.005c-0.014-3.699-2.282-5.252-5.074-5.252s-5.074 1.554-5.074 5.252c0.013 1.976 0.785 3.769 2.039 5.105l-0.004-0.004c0.745 0.882 1.814 1.47 3.021 1.58l0.017 0.001z"></path>
<path d="M10.193 25.185c-3.797 0-6.875-3.078-6.875-6.875s3.078-6.875 6.875-6.875c3.797 0 6.875 3.078 6.875 6.875v0c0 3.797-3.078 6.875-6.875 6.875v0zM10.193 12.81c-3.037 0-5.5 2.462-5.5 5.5s2.462 5.5 5.5 5.5c3.037 0 5.5-2.462 5.5-5.5v0c0-3.037-2.462-5.5-5.5-5.5v0z"></path>
<path d="M0.678 28.815c-0.376-0.005-0.678-0.311-0.678-0.687 0-0.187 0.075-0.357 0.197-0.481l5.032-5.032c0.125-0.125 0.298-0.202 0.488-0.202 0.381 0 0.69 0.309 0.69 0.69 0 0.191-0.077 0.363-0.202 0.488v0l-5.046 5.019c-0.123 0.125-0.293 0.203-0.481 0.206h-0.001z"></path>
</svg>
