<!-- Generated by IcoMoon.io -->
<svg version="1.1" xmlns="http://www.w3.org/2000/svg" width="32" height="32" viewBox="0 0 32 32">
<title>settings</title>
<path d="M31.272 15.889c-0.010-6.088-3.441-11.372-8.474-14.032l-0.087-0.042-2.14 3.013c4.234 2.047 7.102 6.309 7.102 11.241 0 3.57-1.503 6.789-3.911 9.059l-0.006 0.006-3.304-2.876-5.239 9.742c8.792-0.233 15.856-7.315 16.060-16.092l0-0.019z"></path>
<path d="M0.728 16.111c0.001 6.090 3.436 11.378 8.474 14.032l0.087 0.042 2.106-3.013c-4.222-2.052-7.080-6.307-7.080-11.231 0-3.584 1.515-6.815 3.94-9.086l0.007-0.006 3.287 2.962 5.256-9.811c-8.8 0.224-15.872 7.309-16.077 16.092l-0 0.019z"></path>
</svg>
