<!-- Generated by IcoMoon.io -->
<svg version="1.1" xmlns="http://www.w3.org/2000/svg" width="32" height="32" viewBox="0 0 32 32">
<title>study</title>
<path d="M30.67 31.002h-30.67v-27.003h16.002v2h-14.002v23.003h26.67v-14.002h2v16.002z"></path>
<path d="M17.122 21.534l-1.88-3.774-3.774-1.88 11.588-11.588 1.413 1.413-9.628 9.628 1.894 0.947 0.933 1.88 9.628-9.628 1.413 1.413-11.588 11.588z"></path>
<path d="M30.123 8.533l-5.654-5.654 0.707-0.707c0.723-0.724 1.723-1.172 2.827-1.173h0c2.208 0.002 3.997 1.792 3.997 4 0 1.104-0.447 2.103-1.17 2.827l0-0zM27.456 3.065l2.454 2.454c0.050-0.154 0.084-0.331 0.093-0.515l0-0.005c0-1.105-0.896-2-2-2v0 0c-0.002 0-0.004 0-0.006 0-0.183 0-0.36 0.024-0.528 0.070l0.014-0.003z"></path>
<path d="M7.187 25.801l2.76-8.254 1.894 0.627-1.48 4.467 4.467-1.48 0.627 1.894-8.268 2.747z"></path>
</svg>
