<!-- Generated by IcoMoon.io -->
<svg version="1.1" xmlns="http://www.w3.org/2000/svg" width="32" height="32" viewBox="0 0 32 32">
<title>times</title>
<path d="M3.334 19.161c0 7.091 5.749 12.839 12.84 12.839s12.84-5.749 12.84-12.84-5.749-12.84-12.84-12.84c-0.050 0-0.1 0-0.15 0.001l0.008-0c-7.030 0.081-12.698 5.798-12.698 12.839 0 0 0 0.001 0 0.001v-0zM6.187 19.032c-0-0.017-0-0.037-0-0.056 0-5.453 4.42-9.873 9.873-9.873s9.873 4.42 9.873 9.873c0 5.412-4.355 9.808-9.752 9.872l-0.006 0c-0.021 0-0.046 0-0.072 0-5.428 0-9.832-4.38-9.872-9.798l-0-0.004zM15.19 18.761c-0.178-0.218-0.285-0.5-0.285-0.807 0-0.406 0.188-0.768 0.482-1.003l0.003-0.002 4.651-3.752c0.22-0.181 0.504-0.291 0.814-0.291 0.402 0 0.761 0.185 0.996 0.474l0.002 0.002 0.171 0.214c0.181 0.22 0.291 0.504 0.291 0.814 0 0.402-0.185 0.761-0.474 0.996l-0.002 0.002-4.651 3.752c-0.22 0.181-0.504 0.291-0.814 0.291-0.402 0-0.761-0.185-0.996-0.474l-0.002-0.002z"></path>
<path d="M25.198 8.344l2.268-2.001 2.785 3.156-2.268 2.001-2.785-3.156z"></path>
<path d="M1.75 9.487l2.785-3.156 2.268 2.001-2.785 3.156-2.268-2.001z"></path>
<path d="M14.59 0h2.597c0.859 0 1.555 0.696 1.555 1.555v1.17c0 0.859-0.696 1.555-1.555 1.555h-2.597c-0.859 0-1.555-0.696-1.555-1.555v-1.17c0-0.859 0.696-1.555 1.555-1.555z"></path>
</svg>
