<!-- Generated by IcoMoon.io -->
<svg version="1.1" xmlns="http://www.w3.org/2000/svg" width="32" height="32" viewBox="0 0 32 32">
<title>toilette</title>
<path d="M7.027 9.109c-1.958 0-3.546-1.588-3.546-3.546s1.588-3.546 3.546-3.546c1.958 0 3.546 1.588 3.546 3.546v0c0 1.958-1.588 3.546-3.546 3.546v0zM7.027 3.893c-0.922 0-1.67 0.748-1.67 1.67s0.748 1.67 1.67 1.67c0.922 0 1.67-0.748 1.67-1.67v0c0-0.922-0.748-1.67-1.67-1.67v0z"></path>
<path d="M1.876 20.405l-1.876-0.103 0.46-8.227 3.349-2.871 1.22 1.426-2.739 2.345-0.413 7.43z"></path>
<path d="M12.177 20.405l-0.413-7.43-2.739-2.345 1.22-1.426 3.349 2.871 0.46 8.227-1.876 0.103z"></path>
<path d="M9.616 29.983h-5.179l-0.957-9.541v-5.31h1.876v5.216l0.779 7.758h1.782l0.788-7.852-0.009-5.122h1.876v5.216l-0.957 9.635z"></path>
<path d="M24.973 9.109c-1.959 0-3.546-1.588-3.546-3.546s1.588-3.546 3.546-3.546c1.959 0 3.546 1.588 3.546 3.546v0c0 1.958-1.588 3.546-3.546 3.546v0zM24.973 3.893c-0.922 0-1.67 0.748-1.67 1.67s0.748 1.67 1.67 1.67c0.922 0 1.67-0.748 1.67-1.67v0c-0.005-0.92-0.75-1.665-1.669-1.67h-0.001z"></path>
<path d="M19.823 20.405l-1.876-0.103 0.46-8.227 3.349-2.871 1.22 1.426-2.739 2.345-0.413 7.43z"></path>
<path d="M30.124 20.405l-0.413-7.43-2.739-2.345 1.22-1.426 3.349 2.871 0.46 8.227-1.876 0.103z"></path>
<path d="M30.499 23.894h-11.042l1.989-8.969 1.829 0.413-1.482 6.68h6.361l-1.482-6.68 1.829-0.413 1.998 8.969z"></path>
<path d="M27.572 29.983h-5.188l-0.422-4.297 1.867-0.178 0.263 2.599h1.773l0.263-2.683 1.867 0.178-0.422 4.381z"></path>
</svg>
