<!-- Generated by IcoMoon.io -->
<svg version="1.1" xmlns="http://www.w3.org/2000/svg" width="32" height="32" viewBox="0 0 32 32">
<title>user</title>
<path d="M16.433 23.501c-0.049 0.001-0.107 0.002-0.165 0.002-2.379 0-4.546-0.907-6.174-2.393l0.007 0.006c-4.885 1.227-8.444 5.579-8.444 10.763 0 0.038 0 0.076 0.001 0.113l-0-0.006h28.686c0-0.032 0.001-0.070 0.001-0.107 0-5.184-3.559-9.536-8.367-10.747l-0.076-0.016c-1.388 1.437-3.318 2.342-5.459 2.385l-0.008 0z"></path>
<path d="M15.821 18.372c1.852-0.209 3.459-1.121 4.571-2.458l0.009-0.011c1.932-2.041 3.131-4.793 3.166-7.824l0-0.007c0.021-5.657-3.462-8.063-7.747-8.063s-7.831 2.406-7.831 8.084c0.046 3.041 1.251 5.791 3.192 7.836l-0.005-0.005c1.136 1.358 2.769 2.267 4.616 2.446l0.028 0.002z"></path>
</svg>
