<!-- Generated by IcoMoon.io -->
<svg version="1.1" xmlns="http://www.w3.org/2000/svg" width="32" height="32" viewBox="0 0 32 32">
<title>warning</title>
<path d="M15.171 23.525c-0-0.006-0-0.014-0-0.022 0-0.237 0.096-0.452 0.252-0.607l0-0c0.18-0.154 0.416-0.248 0.674-0.248s0.494 0.094 0.676 0.249l-0.001-0.001c0.155 0.155 0.252 0.37 0.252 0.607 0 0.008-0 0.015-0 0.023l0-0.001c0 0.008 0 0.017 0 0.027 0 0.23-0.092 0.438-0.241 0.591l0-0c-0.185 0.154-0.424 0.247-0.686 0.247s-0.501-0.093-0.687-0.249l0.002 0.001c-0.149-0.152-0.24-0.361-0.24-0.591 0-0.009 0-0.019 0-0.028l-0 0.001zM16.772 21.411h-1.394l-0.149-6.858h1.714z"></path>
<path d="M30.864 30.040h-29.716c-0.001 0-0.003 0-0.005 0-0.631 0-1.143-0.512-1.143-1.143 0-0.21 0.057-0.408 0.156-0.577l-0.003 0.005 14.858-25.808c0.202-0.343 0.569-0.569 0.989-0.569s0.787 0.227 0.986 0.564l0.003 0.005 14.858 25.819c0.096 0.164 0.153 0.361 0.153 0.572 0 0.631-0.512 1.143-1.143 1.143-0.002 0-0.003 0-0.005 0h0zM3.125 27.754h25.762l-12.881-22.345z"></path>
</svg>
